<mxfile host="app.diagrams.net" agent="Mozilla/5.0 (Windows NT 10.0; Win64; x64) AppleWebKit/537.36 (KHTML, like Gecko) Chrome/138.0.0.0 Safari/537.36" version="27.2.0">
  <diagram name="Страница — 1" id="o4GE4HBxgImHae77Xjh0">
    <mxGraphModel dx="1665" dy="785" grid="1" gridSize="10" guides="1" tooltips="1" connect="1" arrows="1" fold="1" page="1" pageScale="1" pageWidth="827" pageHeight="1169" math="0" shadow="0">
      <root>
        <mxCell id="0" />
        <mxCell id="1" parent="0" />
        <mxCell id="mfYagniKOFgP6CYpXVSa-9" value="" style="edgeStyle=orthogonalEdgeStyle;rounded=0;orthogonalLoop=1;jettySize=auto;html=1;" parent="1" target="mfYagniKOFgP6CYpXVSa-4" edge="1">
          <mxGeometry relative="1" as="geometry">
            <Array as="points">
              <mxPoint x="245" y="190" />
              <mxPoint x="245" y="190" />
            </Array>
            <mxPoint x="215" y="190" as="sourcePoint" />
          </mxGeometry>
        </mxCell>
        <mxCell id="mfYagniKOFgP6CYpXVSa-10" value="" style="edgeStyle=orthogonalEdgeStyle;rounded=0;orthogonalLoop=1;jettySize=auto;html=1;" parent="1" source="mfYagniKOFgP6CYpXVSa-4" target="mfYagniKOFgP6CYpXVSa-5" edge="1">
          <mxGeometry relative="1" as="geometry">
            <Array as="points">
              <mxPoint x="490" y="140" />
              <mxPoint x="490" y="140" />
            </Array>
          </mxGeometry>
        </mxCell>
        <mxCell id="mfYagniKOFgP6CYpXVSa-4" value="" style="rounded=0;whiteSpace=wrap;html=1;" parent="1" vertex="1">
          <mxGeometry x="275" y="100" width="180" height="260" as="geometry" />
        </mxCell>
        <mxCell id="mfYagniKOFgP6CYpXVSa-5" value="" style="shape=cylinder3;whiteSpace=wrap;html=1;boundedLbl=1;backgroundOutline=1;size=15;" parent="1" vertex="1">
          <mxGeometry x="525" y="100" width="110" height="100" as="geometry" />
        </mxCell>
        <mxCell id="mfYagniKOFgP6CYpXVSa-6" value="&lt;font style=&quot;font-size: 18px;&quot;&gt;&lt;b&gt;A - Frontend(Веб-приложение)&lt;/b&gt;&lt;/font&gt;" style="text;html=1;align=left;verticalAlign=middle;whiteSpace=wrap;rounded=0;" parent="1" vertex="1">
          <mxGeometry x="94" y="400" width="290" height="30" as="geometry" />
        </mxCell>
        <mxCell id="mfYagniKOFgP6CYpXVSa-7" value="&lt;font style=&quot;font-size: 18px;&quot;&gt;&lt;b&gt;B - Backend&lt;/b&gt;&lt;/font&gt;" style="text;html=1;align=left;verticalAlign=middle;whiteSpace=wrap;rounded=0;" parent="1" vertex="1">
          <mxGeometry x="94" y="430" width="240" height="30" as="geometry" />
        </mxCell>
        <mxCell id="mfYagniKOFgP6CYpXVSa-8" value="&lt;font style=&quot;font-size: 18px;&quot;&gt;&lt;b&gt;С - База данных (PG)&lt;/b&gt;&lt;/font&gt;" style="text;html=1;align=left;verticalAlign=middle;whiteSpace=wrap;rounded=0;" parent="1" vertex="1">
          <mxGeometry x="94" y="460" width="320" height="30" as="geometry" />
        </mxCell>
        <mxCell id="mfYagniKOFgP6CYpXVSa-11" value="&lt;font style=&quot;font-size: 24px;&quot;&gt;&lt;b&gt;1&lt;/b&gt;&lt;/font&gt;" style="text;html=1;align=center;verticalAlign=middle;whiteSpace=wrap;rounded=0;" parent="1" vertex="1">
          <mxGeometry x="215" y="210" width="60" height="30" as="geometry" />
        </mxCell>
        <mxCell id="mfYagniKOFgP6CYpXVSa-12" value="&lt;font style=&quot;font-size: 24px;&quot;&gt;&lt;b&gt;2&lt;/b&gt;&lt;/font&gt;" style="text;html=1;align=center;verticalAlign=middle;whiteSpace=wrap;rounded=0;" parent="1" vertex="1">
          <mxGeometry x="455" y="140" width="60" height="30" as="geometry" />
        </mxCell>
        <mxCell id="mfYagniKOFgP6CYpXVSa-13" value="&lt;font style=&quot;font-size: 24px;&quot;&gt;&lt;b&gt;А&lt;/b&gt;&lt;/font&gt;" style="text;html=1;align=center;verticalAlign=middle;whiteSpace=wrap;rounded=0;" parent="1" vertex="1">
          <mxGeometry x="115" y="70" width="60" height="30" as="geometry" />
        </mxCell>
        <mxCell id="mfYagniKOFgP6CYpXVSa-14" value="&lt;span style=&quot;font-size: 24px;&quot;&gt;&lt;b&gt;В&lt;/b&gt;&lt;/span&gt;" style="text;html=1;align=center;verticalAlign=middle;whiteSpace=wrap;rounded=0;" parent="1" vertex="1">
          <mxGeometry x="335" y="70" width="60" height="30" as="geometry" />
        </mxCell>
        <mxCell id="mfYagniKOFgP6CYpXVSa-15" value="&lt;font style=&quot;font-size: 24px;&quot;&gt;&lt;b&gt;С&lt;/b&gt;&lt;/font&gt;" style="text;html=1;align=center;verticalAlign=middle;whiteSpace=wrap;rounded=0;" parent="1" vertex="1">
          <mxGeometry x="550" y="70" width="60" height="30" as="geometry" />
        </mxCell>
        <mxCell id="mfYagniKOFgP6CYpXVSa-16" value="&lt;font style=&quot;font-size: 18px;&quot;&gt;&lt;b&gt;1 - &lt;/b&gt;&lt;/font&gt;&lt;span style=&quot;font-size: 18px;&quot;&gt;&lt;b&gt;HTTP/HTTPS&lt;/b&gt;&lt;/span&gt;" style="text;html=1;align=left;verticalAlign=middle;whiteSpace=wrap;rounded=0;" parent="1" vertex="1">
          <mxGeometry x="94" y="520" width="490" height="30" as="geometry" />
        </mxCell>
        <mxCell id="mfYagniKOFgP6CYpXVSa-17" value="&lt;font style=&quot;font-size: 18px;&quot;&gt;&lt;b&gt;2 - TCP/IP&lt;/b&gt;&lt;/font&gt;" style="text;html=1;align=left;verticalAlign=middle;whiteSpace=wrap;rounded=0;" parent="1" vertex="1">
          <mxGeometry x="94" y="550" width="740" height="30" as="geometry" />
        </mxCell>
        <mxCell id="zjhjJ-8QjE7yKrGN_aBC-5" value="" style="endArrow=classic;html=1;rounded=0;" parent="1" edge="1">
          <mxGeometry width="50" height="50" relative="1" as="geometry">
            <mxPoint x="275" y="250" as="sourcePoint" />
            <mxPoint x="215" y="250" as="targetPoint" />
          </mxGeometry>
        </mxCell>
        <mxCell id="zjhjJ-8QjE7yKrGN_aBC-6" style="edgeStyle=orthogonalEdgeStyle;rounded=0;orthogonalLoop=1;jettySize=auto;html=1;exitX=0.5;exitY=1;exitDx=0;exitDy=0;" parent="1" source="mfYagniKOFgP6CYpXVSa-12" target="mfYagniKOFgP6CYpXVSa-12" edge="1">
          <mxGeometry relative="1" as="geometry" />
        </mxCell>
        <mxCell id="zjhjJ-8QjE7yKrGN_aBC-7" value="" style="endArrow=classic;html=1;rounded=0;" parent="1" edge="1">
          <mxGeometry width="50" height="50" relative="1" as="geometry">
            <mxPoint x="525" y="170" as="sourcePoint" />
            <mxPoint x="455" y="170" as="targetPoint" />
          </mxGeometry>
        </mxCell>
        <mxCell id="kdZs4-k9UCqGVqIyDuSh-1" value="" style="rounded=1;whiteSpace=wrap;html=1;" parent="1" vertex="1">
          <mxGeometry x="90" y="120" width="120" height="240" as="geometry" />
        </mxCell>
        <mxCell id="IupR5ZRm3BY_QhgpdHhx-2" value="" style="ellipse;shape=cloud;whiteSpace=wrap;html=1;" vertex="1" parent="1">
          <mxGeometry x="490" y="220" width="225" height="140" as="geometry" />
        </mxCell>
        <mxCell id="IupR5ZRm3BY_QhgpdHhx-3" value="&lt;font style=&quot;font-size: 24px;&quot;&gt;&lt;b&gt;3&lt;/b&gt;&lt;/font&gt;" style="text;html=1;align=center;verticalAlign=middle;whiteSpace=wrap;rounded=0;" vertex="1" parent="1">
          <mxGeometry x="455" y="290" width="60" height="30" as="geometry" />
        </mxCell>
        <mxCell id="IupR5ZRm3BY_QhgpdHhx-4" value="&lt;span style=&quot;font-size: 24px;&quot;&gt;&lt;b&gt;D&lt;/b&gt;&lt;/span&gt;" style="text;html=1;align=center;verticalAlign=middle;whiteSpace=wrap;rounded=0;" vertex="1" parent="1">
          <mxGeometry x="620" y="215" width="60" height="30" as="geometry" />
        </mxCell>
        <mxCell id="IupR5ZRm3BY_QhgpdHhx-5" value="&lt;font style=&quot;font-size: 18px;&quot;&gt;&lt;b&gt;D - AI&lt;/b&gt;&lt;/font&gt;" style="text;html=1;align=left;verticalAlign=middle;whiteSpace=wrap;rounded=0;" vertex="1" parent="1">
          <mxGeometry x="94" y="490" width="320" height="30" as="geometry" />
        </mxCell>
        <mxCell id="IupR5ZRm3BY_QhgpdHhx-7" value="&lt;font style=&quot;font-size: 18px;&quot;&gt;&lt;b&gt;3 - REST API&lt;/b&gt;&lt;/font&gt;" style="text;html=1;align=left;verticalAlign=middle;whiteSpace=wrap;rounded=0;" vertex="1" parent="1">
          <mxGeometry x="94" y="580" width="740" height="30" as="geometry" />
        </mxCell>
        <mxCell id="IupR5ZRm3BY_QhgpdHhx-8" value="" style="edgeStyle=orthogonalEdgeStyle;rounded=0;orthogonalLoop=1;jettySize=auto;html=1;" edge="1" parent="1">
          <mxGeometry relative="1" as="geometry">
            <Array as="points">
              <mxPoint x="485" y="270" />
              <mxPoint x="485" y="270" />
            </Array>
            <mxPoint x="455" y="270" as="sourcePoint" />
            <mxPoint x="510" y="270" as="targetPoint" />
          </mxGeometry>
        </mxCell>
        <mxCell id="IupR5ZRm3BY_QhgpdHhx-9" value="" style="endArrow=classic;html=1;rounded=0;" edge="1" parent="1">
          <mxGeometry width="50" height="50" relative="1" as="geometry">
            <mxPoint x="515" y="320" as="sourcePoint" />
            <mxPoint x="455" y="320" as="targetPoint" />
          </mxGeometry>
        </mxCell>
      </root>
    </mxGraphModel>
  </diagram>
</mxfile>
